<?xml version="1.0" encoding="utf-8"?>
<!-- Generator: Adobe Illustrator 16.0.4, SVG Export Plug-In . SVG Version: 6.00 Build 0)  -->
<!DOCTYPE svg PUBLIC "-//W3C//DTD SVG 1.1//EN" "http://www.w3.org/Graphics/SVG/1.1/DTD/svg11.dtd" [
	<!ENTITY ns_flows "http://ns.adobe.com/Flows/1.0/">
	<!ENTITY ns_extend "http://ns.adobe.com/Extensibility/1.0/">
	<!ENTITY ns_ai "http://ns.adobe.com/AdobeIllustrator/10.0/">
	<!ENTITY ns_graphs "http://ns.adobe.com/Graphs/1.0/">
]>
<svg version="1.1" xmlns:x="&ns_extend;" xmlns:i="&ns_ai;" xmlns:graph="&ns_graphs;"
	 xmlns="http://www.w3.org/2000/svg" xmlns:xlink="http://www.w3.org/1999/xlink" xmlns:a="http://ns.adobe.com/AdobeSVGViewerExtensions/3.0/"
	 x="0px" y="0px" width="432px" height="432px" viewBox="0 0 432 432" enable-background="new 0 0 432 432" xml:space="preserve">
<g id="Swing">
	<path fill-rule="evenodd" clip-rule="evenodd" fill="#77243B" d="M98.825,299.496c-10.889,3.812-21.876,5.547-33.279,2.542
		c-15.686-4.136-24.839-18.765-20.934-33.58c2.995-11.36,13.084-19.894,24.254-20.515c8.135-0.451,15.018,4.669,16.897,12.581
		c0.095,0.402,0.242,0.855,0.143,1.227c-0.24,0.89-0.61,1.746-0.928,2.615c-0.575-0.665-1.479-1.245-1.671-2.007
		c-1.56-6.187-5.075-10.464-11.689-10.851c-6.858-0.401-11.912,3.068-15.294,8.905c-8.083,13.946,0.56,32.239,15.494,37.208
		c7.56,2.516,15.087,2.213,22.534-0.102c14.943-4.644,25.656-14.007,31.171-28.865c4.713-12.695,0.732-28.395-12.679-36.396
		c-5.276-3.147-10.622-6.276-15.487-10c-8.045-6.16-11.859-14.266-8.927-24.507c1.911-6.674,6.21-11.767,12.023-15.362
		c8.501-5.259,17.727-7.818,27.818-6.188c5.02,0.812,9.406,2.676,12.194,7.267c3.147,5.183,0.538,13.369-5.121,15.637
		c-0.764,0.306-1.813-0.103-2.732-0.181c0.418-0.765,0.651-1.772,1.284-2.246c2.197-1.648,2.853-3.779,2.454-6.359
		c-0.932-6.045-4.58-9.583-11.275-10.962c-9.963-2.051-22.099,3.831-26.45,12.823c-3.254,6.725-2.493,13.427,3.106,18.434
		c4.356,3.896,9.467,6.965,14.337,10.264c5.159,3.494,10.526,6.734,14.387,11.771c8.933,11.656,9.519,27.541,1.585,40.769
		c-6.075,10.131-14.627,17.488-25.266,22.488C104.144,297.142,101.477,298.302,98.825,299.496z"/>
	<path fill-rule="evenodd" clip-rule="evenodd" fill="#77243B" d="M254.33,321.955c-0.158,1.156-0.047,2.438-0.516,3.449
		c-4.832,10.398-12.535,18.317-22.027,24.465c-7.475,4.84-15.698,7.802-24.776,6.609c-12.538-1.647-21.548-8.417-26.507-20.029
		c-7.567-17.719-5.862-35.518,0.98-52.921c6.085-15.47,15.345-28.907,28.517-39.312c7.176-5.667,15.131-10.057,24.216-11.742
		c15.81-2.936,28.253,6.782,29.746,22.944c1.341,14.529-8.176,31.077-21.368,37.448c-5.786,2.794-11.64,4.361-18.033,2.547
		c-6.203-1.762-9.551-6.064-10.709-12.197c-0.2-1.06,0.123-2.316,0.531-3.353c0.204-0.512,1.154-0.727,1.767-1.076
		c0.262,0.569,0.603,1.117,0.771,1.713c0.555,1.966,0.763,4.085,1.62,5.901c2.315,4.908,6.505,6.555,11.809,5.082
		c9.616-2.672,16.089-9.046,20.57-17.626c3.425-6.557,5.556-13.476,5.089-21.043c-0.981-15.869-13.088-20.833-25.578-16.179
		c-6.958,2.593-12.976,6.801-17.854,12.36c-14.96,17.047-24.191,36.727-26.084,59.475c-0.838,10.076,0.974,19.801,5.452,29.025
		c6.484,13.359,22.695,18.287,35.342,10.71c9.873-5.916,18.139-13.346,23.718-23.549c0.604-1.104,1.513-2.044,2.279-3.06
		C253.633,321.717,253.98,321.836,254.33,321.955z"/>
	<path fill-rule="evenodd" clip-rule="evenodd" fill="#77243B" d="M285.691,187.363c-3.239,3.66-6.375,7.188-10.471,9.665
		c-1.466,0.886-3.109,1.591-4.764,2.031c-4.359,1.158-7.918-1.29-8.778-5.74c-0.656-3.395-0.343-6.705,0.743-9.928
		c3.605-10.697,10.576-18.531,20.795-23.198c4.548-2.077,9.465-3.374,14.266-4.857c1.748-0.542,2.254,0.045,1.881,1.703
		c-3.832,16.983-7.58,33.987-11.578,50.932c-1.466,6.208-4.568,11.624-10.266,15.003c-5.576,3.308-11.548,4.065-17.738,1.875
		c-1.022-0.361-1.949-1.077-2.808-1.77c-0.266-0.214-0.353-1.014-0.161-1.319c0.162-0.258,0.852-0.265,1.297-0.234
		c0.352,0.022,0.691,0.262,1.032,0.416c7.007,3.173,13.757,1.305,17.745-5.314c1.744-2.896,3.123-6.128,4.027-9.386
		C282.739,200.681,284.125,193.996,285.691,187.363z M291.812,160.96c-10.992,2.504-18.67,8.157-21.888,18.866
		c-1.168,3.888-2.001,7.869-0.589,11.903c1.021,2.925,3.209,3.653,5.877,2.074c4.432-2.62,7.396-6.579,9.879-10.933
		C288.896,176.196,289.372,168.51,291.812,160.96z"/>
	<path fill-rule="evenodd" clip-rule="evenodd" fill="#77243B" d="M343.628,240.29c3.036-2.679,5.915-5.547,9.146-7.939
		c1.71-1.268,3.97-2.064,6.093-2.438c3.909-0.686,7.108,1.846,7.925,5.739c1.368,6.53-0.719,12.377-3.878,17.852
		c-5.498,9.528-13.318,16.396-23.944,19.814c-2.303,0.74-4.526,1.764-6.864,2.354c-2.617,0.659-3.145,0.094-2.578-2.534
		c1.979-9.193,4.005-18.376,6.05-27.555c2.403-10.792,4.737-21.602,7.315-32.352c1.415-5.9,4.042-11.273,8.796-15.3
		c3.796-3.216,8.232-4.712,13.219-4.343c0.627,0.047,1.216,0.605,1.822,0.928c-0.581,0.324-1.153,0.914-1.744,0.933
		c-8.088,0.265-11.899,5.598-13.809,12.384c-2.39,8.492-4.096,17.176-6.085,25.781C344.566,235.888,344.091,238.173,343.628,240.29z
		 M337.016,269.427c2.944-0.901,5.549-1.41,7.89-2.49c2.737-1.262,5.661-2.594,7.77-4.648c5.556-5.416,7.213-12.522,7.29-20.038
		c0.017-1.548-0.364-3.177-0.917-4.634c-0.98-2.592-2.776-3.307-5.337-2.265c-4.266,1.739-7.12,5.06-9.284,8.944
		C340.139,251.996,339.477,260.771,337.016,269.427z"/>
	<path fill-rule="evenodd" clip-rule="evenodd" fill="#77243B" d="M171.323,230.745c-1.807,2.099-3.5,4.311-5.452,6.267
		c-2.435,2.442-5.207,4.456-8.814,4.825c-4.059,0.416-7.686-2.195-8.047-6.274c-0.248-2.794,0.02-5.7,0.494-8.481
		c0.938-5.51,2.29-10.948,3.239-16.456c0.372-2.155,4.952-4.554,6.311-4.01c0.529,0.211,1.061,1.222,1.039,1.85
		c-0.054,1.539-0.358,3.082-0.688,4.596c-1.322,6.076-2.699,12.141-4.039,18.213c-0.405,1.842-0.586,3.652,0.476,5.401
		c0.882,1.453,2.099,1.848,3.648,1.454c2.848-0.724,4.918-2.567,6.073-5.128c1.297-2.873,2.389-5.889,3.142-8.947
		c1.621-6.579,2.965-13.227,4.428-19.844c0.591-2.677,3.302-4.948,5.978-4.968c1.63-0.012,1.572,1.153,1.351,2.231
		c-0.69,3.35-1.453,6.684-2.184,10.024c-0.757,3.463-1.534,6.922-2.254,10.392c-0.528,2.544-0.587,5.064,0.685,7.457
		c0.855,1.61,2.124,2.161,3.858,1.604c3.092-0.993,4.876-3.432,6.236-6.107c3.419-6.733,5.711-13.802,5.295-21.481
		c-0.076-1.395-0.439-2.864-1.046-4.116c-0.9-1.858-2.636-1.836-3.812-0.129c-0.176,0.256-0.25,0.599-0.464,0.805
		c-0.444,0.428-0.951,0.788-1.432,1.176c-0.125-0.671-0.508-1.419-0.336-2.005c0.914-3.103,3.883-5.391,6.694-5.32
		c2.754,0.068,5.458,2.459,6.332,5.786c1.647,6.276,0.859,12.372-1.841,18.185c-2.947,6.341-7.19,11.562-13.499,14.951
		C178.2,235.11,174.623,234.591,171.323,230.745z"/>
	<path fill-rule="evenodd" clip-rule="evenodd" fill="#77243B" d="M237.156,182.821c2.965-2.641,6.25-5.724,9.725-8.576
		c1.1-0.904,2.654-1.417,4.082-1.725c3.677-0.79,6.709,1.894,6.867,6.181c0.079,2.144-0.192,4.338-0.6,6.454
		c-0.951,4.944-2.164,9.837-3.086,14.785c-0.279,1.498-0.091,3.131,0.142,4.662c0.235,1.557-0.382,2.689-2.86,3.814
		c-1.598,0.726-3.438,1.838-4.984,0.265c-0.594-0.602-0.566-2.14-0.356-3.155c1.422-6.88,3.012-13.724,4.448-20.599
		c0.35-1.682,0.555-3.453,0.435-5.155c-0.189-2.688-1.739-3.571-4.067-2.21c-1.728,1.011-3.316,2.413-4.646,3.923
		c-4.556,5.174-7.876,10.977-8.957,17.948c-0.693,4.479-1.909,8.877-2.592,13.357c-0.499,3.271-3.985,4.738-6.301,4.716
		c-1.501-0.016-1.559-0.989-1.314-2.223c1.558-7.866,3.095-15.735,4.574-23.615c0.548-2.921,0.897-5.879,1.39-8.811
		c0.087-0.524,0.382-1.034,0.671-1.495c0.188-0.298,0.499-0.611,0.823-0.721c1.766-0.599,3.553-1.138,5.332-1.698
		C236.356,180.389,236.832,181.833,237.156,182.821z"/>
	<path fill-rule="evenodd" clip-rule="evenodd" fill="#77243B" d="M314.726,274.394c-2.875,3.099-5.718,6.512-8.952,9.499
		c-1.661,1.534-3.927,2.577-6.09,3.371c-5.439,1.996-7.873-1.704-8.299-5.889c-0.221-2.156,0.191-4.425,0.604-6.588
		c0.653-3.43,1.691-6.789,2.292-10.225c0.431-2.473,0.605-5.027,0.552-7.537c-0.069-3.323,2.993-6.56,6.383-6.419
		c1.416,0.059,2.141,0.878,2.122,2.187c-0.017,1.192-0.243,2.396-0.498,3.566c-1.485,6.827-3.07,13.632-4.467,20.477
		c-0.304,1.491-0.235,3.172,0.119,4.656c0.417,1.745,1.691,2.224,3.423,1.642c3.73-1.255,5.916-4.27,8.007-7.304
		c2.96-4.294,4.85-9.055,5.89-14.176c0.973-4.792,2.132-9.547,3.121-14.337c0.567-2.743,2.242-4.333,4.817-5.11
		c2.411-0.728,3.269,0.044,2.737,2.485c-1.568,7.198-3.192,14.385-4.729,21.589c-0.666,3.121-0.521,6.146,1.18,9.03
		c1.132,1.919,0.317,3.771-1.836,4.854c-2.396,1.203-3.712,0.848-4.786-1.486C315.631,277.195,315.168,275.608,314.726,274.394z"/>
	<path fill-rule="evenodd" clip-rule="evenodd" fill="#77243B" d="M308.215,215.418c-0.707,0.214-1.41,0.597-2.12,0.612
		c-6.21,0.139-10.125,3.608-12.231,9.018c-1.674,4.297-2.857,8.821-3.89,13.328c-4.057,17.715-7.965,35.463-11.93,53.197
		c-0.652,2.913-3.04,4.814-5.983,4.822c-1.083,0.003-1.537-0.505-1.387-1.528c0.146-1.004,0.35-2.001,0.569-2.991
		c4.153-18.734,8.28-37.476,12.492-56.195c1.24-5.513,3.257-10.734,7.078-15.043c4.067-4.585,9.157-6.918,15.35-6.567
		c0.719,0.041,1.421,0.372,2.131,0.569C308.269,214.899,308.241,215.159,308.215,215.418z"/>
	<path fill-rule="evenodd" clip-rule="evenodd" fill="#77243B" d="M207.354,223.299c-0.155,0.048-0.564,0.216-0.989,0.303
		c-1.539,0.314-2.326-0.33-2.045-1.863c0.615-3.361,1.334-6.705,2.044-10.049c1.242-5.837,2.522-11.665,3.756-17.505
		c0.229-1.089,0.368-2.203,0.459-3.314c0.251-3.106,2.896-5.583,6.081-5.654c1.468-0.032,2.041,0.829,1.947,2.126
		c-0.082,1.172-0.323,2.339-0.578,3.488c-1.631,7.344-3.297,14.681-4.917,22.026c-0.252,1.146-0.397,2.326-0.464,3.498
		C212.443,219.925,210.984,221.948,207.354,223.299z"/>
	<path fill-rule="evenodd" clip-rule="evenodd" fill="#77243B" d="M216.977,161.414c2.863-1.076,4.701,0.247,4.916,3.536
		c0.164,2.523-2.012,5.962-4.411,6.972c-2.692,1.13-4.798-0.108-5.161-3.036C211.949,165.892,214.057,162.513,216.977,161.414z"/>
</g>
<g id="CWRU">
	<g>
		<g id="XMLID_1_">
			<g>
				<path d="M361.743,51.323c-0.011,0.44-0.011,0.87-0.011,1.31c0,22.83,0,45.65,0.021,68.48c0,0.84-0.25,1.42-0.84,2.01
					c-3.59,3.62-7.141,7.29-10.74,10.89c-0.42,0.42-1.16,0.73-1.76,0.73c-9.471,0.05-18.94,0.05-28.41,0
					c-0.63,0-1.42-0.34-1.87-0.78c-3.75-3.64-7.45-7.32-11.12-11.03c-0.37-0.38-0.689-1.02-0.689-1.54
					c-0.03-23.07-0.021-46.14-0.021-69.21c0-0.28,0.021-0.55,0.04-0.93c7.23,0,14.31,0,21.55,0c0,20.78,0,41.55,0,62.37
					c4.181,0,8.21,0,12.32,0c0-20.78,0.01-41.49,0.01-62.3C347.413,51.323,354.503,51.323,361.743,51.323z M360.433,54.033
					c-0.01-0.43-0.01-0.86-0.01-1.25c-6.38,0-12.59,0-18.9,0c0,20.8,0,41.51-0.01,62.24c-5.05,0-10,0-15.1,0
					c0-20.81,0.01-41.55,0.01-62.31c-6.25,0-12.36,0-18.61,0c-0.01,0.43-0.04,0.74-0.04,1.06c0,22.3-0.01,44.61,0.021,66.91
					c0,0.53,0.28,1.18,0.649,1.56c3.4,3.52,6.841,7.02,10.301,10.47c0.38,0.37,1.05,0.63,1.58,0.63c9.22,0.04,18.46,0.04,27.68,0
					c0.53,0,1.18-0.29,1.55-0.67c3.41-3.41,6.74-6.88,10.13-10.3c0.57-0.57,0.75-1.15,0.75-1.92
					C360.423,98.313,360.423,76.173,360.433,54.033z"/>
				<path fill="#FFFFFF" d="M360.423,52.783c0,0.39,0,0.82,0.01,1.25c-0.01,22.14-0.01,44.28,0,66.42c0,0.77-0.18,1.35-0.75,1.92
					c-3.39,3.42-6.72,6.89-10.13,10.3c-0.37,0.38-1.02,0.67-1.55,0.67c-9.22,0.04-18.46,0.04-27.68,0c-0.53,0-1.2-0.26-1.58-0.63
					c-3.46-3.45-6.9-6.95-10.301-10.47c-0.369-0.38-0.649-1.03-0.649-1.56c-0.03-22.3-0.021-44.61-0.021-66.91
					c0-0.32,0.03-0.63,0.04-1.06c6.25,0,12.36,0,18.61,0c0,20.76-0.01,41.5-0.01,62.31c5.1,0,10.05,0,15.1,0
					c0.01-20.73,0.01-41.44,0.01-62.24C347.833,52.783,354.043,52.783,360.423,52.783z M358.862,55.593
					c0.011-0.43,0.011-0.85,0-1.34c-5.319,0-10.479,0-15.8,0c0,20.78-0.01,41.52-0.01,62.27c-6.09,0-12.02,0-18.12,0
					c0-20.8,0.01-41.53,0.01-62.29c-5.29,0-10.409,0-15.64,0c-0.03,0.33-0.05,0.53-0.05,0.73c0,21.73-0.01,43.47,0.02,65.21
					c0,0.49,0.29,1.09,0.641,1.45c3.13,3.22,6.29,6.41,9.489,9.56c0.37,0.37,1.021,0.66,1.551,0.66c8.779,0.04,17.569,0.04,26.35,0
					c0.55-0.01,1.24-0.33,1.63-0.73c3.07-3.06,6.061-6.19,9.12-9.26c0.59-0.59,0.83-1.18,0.83-2.02
					C358.862,98.423,358.862,77.013,358.862,55.593z"/>
				<path fill="#07324F" d="M358.862,54.253c0.011,0.49,0.011,0.91,0,1.34c0,21.42,0,42.83,0.021,64.24c0,0.84-0.24,1.43-0.83,2.02
					c-3.06,3.07-6.05,6.2-9.12,9.26c-0.39,0.4-1.08,0.72-1.63,0.73c-8.78,0.04-17.57,0.04-26.35,0c-0.53,0-1.181-0.29-1.551-0.66
					c-3.199-3.15-6.359-6.34-9.489-9.56c-0.351-0.36-0.641-0.96-0.641-1.45c-0.029-21.74-0.02-43.48-0.02-65.21
					c0-0.2,0.02-0.4,0.05-0.73c5.23,0,10.35,0,15.64,0c0,20.76-0.01,41.49-0.01,62.29c6.101,0,12.03,0,18.12,0
					c0-20.75,0.01-41.49,0.01-62.27C348.383,54.253,353.543,54.253,358.862,54.253z"/>
				<path d="M294.433,64.753c0.04,8.13,0.04,16.27,0,24.41c-0.01,0.59-0.35,1.29-0.76,1.75c-1.57,1.73-3.24,3.38-4.74,4.93
					c1.67,1.78,3.32,3.5,4.93,5.26c0.29,0.33,0.57,0.82,0.57,1.24c0.03,10.64,0.021,21.29,0.01,31.94c0,0.11-0.04,0.23-0.08,0.42
					c-7.14-0.01-14.279-0.01-21.529-0.01c0-9.11,0-18.2,0.01-27.39c-4.01,0-7.91,0-11.91,0c0.01,9.11,0.01,18.2,0.01,27.38
					c-7.29,0-14.47,0-21.76,0c0-27.75,0.01-55.53,0.01-83.46c0.44,0,0.87,0,1.301,0c13.439,0,26.88,0.01,40.31-0.02
					c0.85,0,1.42,0.26,2,0.85c3.61,3.66,7.28,7.27,10.87,10.94C294.093,63.423,294.423,64.153,294.433,64.753z M293.152,132.483
					c0-9.79,0.011-19.59-0.029-29.38c0-0.48-0.33-1.04-0.67-1.42c-1.811-2.02-3.66-3.98-5.33-5.79c1.63-1.74,3.51-3.69,5.31-5.71
					c0.391-0.42,0.68-1.09,0.69-1.65c0.04-7.69,0.05-15.38,0-23.07c-0.011-0.6-0.311-1.34-0.73-1.77
					c-3.38-3.44-6.83-6.79-10.22-10.21c-0.6-0.6-1.19-0.82-2.021-0.81c-12.71,0.02-25.42,0.01-38.13,0.01c-0.399,0-0.8,0-1.3,0
					c0,26.96-0.01,53.77-0.01,80.62c6.26,0,12.43,0,18.72,0c0-9.15,0-18.24,0-27.37c5,0,9.87,0,14.87,0c0,9.15,0,18.24,0,27.35
					c6.33,0,12.54,0,18.8,0C293.123,132.953,293.152,132.723,293.152,132.483z"/>
				<path fill="#FFFFFF" d="M293.123,103.103c0.04,9.79,0.029,19.59,0.029,29.38c0,0.24-0.029,0.47-0.05,0.8c-6.26,0-12.47,0-18.8,0
					c0-9.11,0-18.2,0-27.35c-5,0-9.87,0-14.87,0c0,9.13,0,18.22,0,27.37c-6.29,0-12.46,0-18.72,0c0-26.85,0.01-53.66,0.01-80.62
					c0.5,0,0.9,0,1.3,0c12.71,0,25.42,0.01,38.13-0.01c0.83-0.01,1.421,0.21,2.021,0.81c3.39,3.42,6.84,6.77,10.22,10.21
					c0.42,0.43,0.72,1.17,0.73,1.77c0.05,7.69,0.04,15.38,0,23.07c-0.011,0.56-0.3,1.23-0.69,1.65c-1.8,2.02-3.68,3.97-5.31,5.71
					c1.67,1.81,3.52,3.77,5.33,5.79C292.793,102.063,293.123,102.623,293.123,103.103z M291.593,131.073
					c0.01-9.11,0.02-18.21-0.02-27.32c-0.011-0.49-0.301-1.08-0.65-1.45c-2.01-2.21-4.07-4.36-6.07-6.47
					c1.891-1.95,3.971-4.04,5.971-6.2c0.409-0.45,0.739-1.18,0.739-1.77c0.05-7.25,0.061-14.49,0-21.74c0-0.63-0.33-1.41-0.77-1.87
					c-3.061-3.13-6.19-6.17-9.26-9.29c-0.601-0.6-1.19-0.8-2.011-0.8c-11.949,0.03-23.89,0.02-35.83,0.02c-0.439,0-0.88,0-1.47,0
					c0,25.95,0,51.76,0,77.59c5.25,0,10.44,0.01,15.76,0.01c0-9.18,0-18.26,0-27.36c5.99,0,11.841,0,17.83,0c0,9.16,0,18.24,0,27.35
					c5.33,0,10.521,0,15.721,0C291.562,131.473,291.593,131.273,291.593,131.073z"/>
				<path fill="#07324F" d="M291.573,103.753c0.039,9.11,0.029,18.21,0.02,27.32c0,0.2-0.03,0.4-0.06,0.7c-5.2,0-10.391,0-15.721,0
					c0-9.11,0-18.19,0-27.35c-5.989,0-11.84,0-17.83,0c0,9.1,0,18.18,0,27.36c-5.319,0-10.51-0.01-15.76-0.01
					c0-25.83,0-51.64,0-77.59c0.59,0,1.03,0,1.47,0c11.94,0,23.881,0.01,35.83-0.02c0.82,0,1.41,0.2,2.011,0.8
					c3.069,3.12,6.199,6.16,9.26,9.29c0.439,0.46,0.77,1.24,0.77,1.87c0.061,7.25,0.05,14.49,0,21.74c0,0.59-0.33,1.32-0.739,1.77
					c-2,2.16-4.08,4.25-5.971,6.2c2,2.11,4.061,4.26,6.07,6.47C291.272,102.673,291.562,103.263,291.573,103.753z M275.753,89.073
					c0-6.55,0-13.04,0-19.59c-5.93-0.01-11.811-0.01-17.71-0.01c0,6.58-0.01,13.09-0.01,19.6
					C263.982,89.073,269.833,89.073,275.753,89.073z"/>
				<path fill="#FFFFFF" d="M275.753,69.483c0,6.55,0,13.04,0,19.59c-5.92,0-11.771,0-17.72,0c0-6.51,0.01-13.02,0.01-19.6
					C263.942,69.473,269.823,69.473,275.753,69.483z M274.192,87.603c0-5.61,0-11.13,0-16.61c-4.97,0-9.84,0-14.689,0
					c0,5.58,0,11.07,0,16.61C264.413,87.603,269.253,87.593,274.192,87.603z"/>
				<path d="M274.192,70.993c0,5.48,0,11,0,16.61c-4.939-0.01-9.779,0-14.689,0c0-5.54,0-11.03,0-16.61
					C264.353,70.993,269.223,70.993,274.192,70.993z M272.743,86.123c0-4.58,0-9.09,0.01-13.68c-4.01,0-7.9,0-11.75,0
					c-0.01,4.63-0.01,9.17-0.01,13.68C264.963,86.123,268.823,86.123,272.743,86.123z"/>
				<path fill="#FFFFFF" d="M272.753,72.443c-0.01,4.59-0.01,9.1-0.01,13.68c-3.92,0-7.78,0-11.75,0c0-4.51,0-9.05,0.01-13.68
					C264.853,72.443,268.743,72.443,272.753,72.443z"/>
				<path d="M209.043,51.313c7.44,0,14.91,0,22.53,0c-5.29,27.82-10.58,55.6-15.88,83.41c-7.58,0-15.1,0-22.69,0
					c-2.58-10.99-5.16-21.95-7.74-32.91c-0.09-0.01-0.18-0.02-0.27-0.03c-2.42,10.97-4.84,21.94-7.27,32.94c-7.58,0-15.1,0-22.68,0
					c-5.62-27.8-11.24-55.55-16.89-83.45c7.61,0,15.04,0,22.54,0c2.22,11.75,4.44,23.47,6.65,35.17c0.07,0,0.14,0,0.22,0
					c0.66-3.15,1.33-6.3,1.98-9.46c1.72-8.33,3.42-16.66,5.16-24.99c0.06-0.3,0.53-0.74,0.81-0.74c6.31-0.04,12.61-0.03,19-0.03
					c2.64,11.84,5.27,23.63,7.9,35.41c0.07,0.02,0.14,0.02,0.2,0.03C204.753,74.913,206.883,63.163,209.043,51.313z M229.732,52.683
					c-6.34,0-12.569-0.01-18.8,0.04c-0.27,0-0.71,0.55-0.78,0.9c-0.48,2.45-0.88,4.92-1.32,7.38c-1.51,8.42-3.03,16.83-4.55,25.24
					c-0.46,2.57-0.94,5.14-1.41,7.71c-0.07-0.01-0.13-0.01-0.19-0.02c-0.1-0.35-0.22-0.69-0.3-1.05
					c-2.93-13.09-5.85-26.18-8.77-39.28c-0.14-0.64-0.36-0.94-1.1-0.94c-5.18,0.03-10.36,0.03-15.54,0c-0.74,0-0.96,0.29-1.1,0.95
					c-2.6,12.54-5.22,25.09-7.84,37.63c-0.19,0.9-0.43,1.79-0.64,2.68c-0.57-2.07-0.93-4.09-1.31-6.11
					c-2.15-11.33-4.32-22.65-6.42-33.99c-0.17-0.95-0.48-1.17-1.37-1.16c-5.75,0.03-11.5,0.02-17.24,0.02
					c-0.36,0-0.71,0.03-1.09,0.05c0.01,0.23,0,0.4,0.03,0.55c2.71,13.43,5.45,26.86,8.16,40.29c2.61,12.92,5.21,25.84,7.79,38.77
					c0.16,0.78,0.46,1.04,1.26,1.04c6.15-0.03,12.31-0.03,18.46,0c0.79,0.01,1.03-0.3,1.18-1c2.6-11.97,5.22-23.93,7.84-35.9
					c0.1-0.45,0.27-0.9,0.49-1.63c3,12.69,5.93,25.04,8.81,37.4c0.21,0.92,0.56,1.14,1.43,1.13c5.99-0.03,11.98-0.01,17.97-0.02
					c0.35,0,0.71-0.04,1.07-0.06C219.553,106.403,224.633,79.603,229.732,52.683z"/>
				<path fill="#FFFFFF" d="M210.933,52.723c6.23-0.05,12.46-0.04,18.8-0.04c-5.1,26.92-10.18,53.72-15.28,80.62
					c-0.36,0.02-0.72,0.06-1.07,0.06c-5.99,0.01-11.98-0.01-17.97,0.02c-0.87,0.01-1.22-0.21-1.43-1.13
					c-2.88-12.36-5.81-24.71-8.81-37.4c-0.22,0.73-0.39,1.18-0.49,1.63c-2.62,11.97-5.24,23.93-7.84,35.9
					c-0.15,0.7-0.39,1.01-1.18,1c-6.15-0.03-12.31-0.03-18.46,0c-0.8,0-1.1-0.26-1.26-1.04c-2.58-12.93-5.18-25.85-7.79-38.77
					c-2.71-13.43-5.45-26.86-8.16-40.29c-0.03-0.15-0.02-0.32-0.03-0.55c0.38-0.02,0.73-0.05,1.09-0.05
					c5.74,0,11.49,0.01,17.24-0.02c0.89-0.01,1.2,0.21,1.37,1.16c2.1,11.34,4.27,22.66,6.42,33.99c0.38,2.02,0.74,4.04,1.31,6.11
					c0.21-0.89,0.45-1.78,0.64-2.68c2.62-12.54,5.24-25.09,7.84-37.63c0.14-0.66,0.36-0.95,1.1-0.95c5.18,0.03,10.36,0.03,15.54,0
					c0.74,0,0.96,0.3,1.1,0.94c2.92,13.1,5.84,26.19,8.77,39.28c0.08,0.36,0.2,0.7,0.3,1.05c0.06,0.01,0.12,0.01,0.19,0.02
					c0.47-2.57,0.95-5.14,1.41-7.71c1.52-8.41,3.04-16.82,4.55-25.24c0.44-2.46,0.84-4.93,1.32-7.38
					C210.223,53.273,210.663,52.723,210.933,52.723z M227.973,54.183c-0.67,0-1.11,0-1.54,0c-4.17,0-8.34,0-12.51,0
					c-2.39,0-2.38,0-2.81,2.35c-2.69,14.96-5.4,29.91-8.16,45.19c-0.18-0.64-0.3-0.96-0.37-1.3c-1.38-6.14-2.75-12.27-4.12-18.41
					c-2.01-8.96-4.03-17.92-5.99-26.89c-0.18-0.79-0.48-0.96-1.2-0.96c-4.37,0.03-8.74,0.03-13.11,0.01c-0.67,0-1.02,0.12-1.12,0.88
					c-0.17,1.28-0.48,2.54-0.75,3.8c-2.65,12.78-5.3,25.57-7.95,38.35c-0.3,1.44-0.62,2.87-0.93,4.31
					c-1.07-4.58-1.91-9.14-2.78-13.68c-2.08-10.89-4.18-21.77-6.24-32.67c-0.16-0.83-0.53-1-1.29-1c-4.9,0.03-9.79,0.01-14.69,0.02
					c-0.23,0-0.46,0.03-0.76,0.05c5.27,25.92,10.52,51.77,15.76,77.59c6.09,0,11.98,0,17.94-0.01c3.22-14.42,6.43-28.82,9.64-43.21
					c0.09,0.01,0.18,0.01,0.27,0.02c3.37,14.4,6.75,28.8,10.11,43.16c6.03,0,11.92,0,17.82,0
					C218.123,105.913,223.033,80.113,227.973,54.183z"/>
				<path fill="#07324F" d="M226.433,54.183c0.43,0,0.87,0,1.54,0c-4.939,25.93-9.85,51.73-14.78,77.6c-5.9,0-11.79,0-17.82,0
					c-3.36-14.36-6.74-28.76-10.11-43.16c-0.09-0.01-0.18-0.01-0.27-0.02c-3.21,14.39-6.42,28.79-9.64,43.21
					c-5.96,0.01-11.85,0.01-17.94,0.01c-5.24-25.82-10.49-51.67-15.76-77.59c0.3-0.02,0.53-0.05,0.76-0.05
					c4.9-0.01,9.79,0.01,14.69-0.02c0.76,0,1.13,0.17,1.29,1c2.06,10.9,4.16,21.78,6.24,32.67c0.87,4.54,1.71,9.1,2.78,13.68
					c0.31-1.44,0.63-2.87,0.93-4.31c2.65-12.78,5.3-25.57,7.95-38.35c0.27-1.26,0.58-2.52,0.75-3.8c0.1-0.76,0.45-0.88,1.12-0.88
					c4.37,0.02,8.74,0.02,13.11-0.01c0.72,0,1.02,0.17,1.2,0.96c1.96,8.97,3.98,17.93,5.99,26.89c1.37,6.14,2.74,12.27,4.12,18.41
					c0.07,0.34,0.19,0.66,0.37,1.3c2.76-15.28,5.47-30.23,8.16-45.19c0.43-2.35,0.42-2.35,2.81-2.35
					C218.093,54.183,222.263,54.183,226.433,54.183z"/>
				<path d="M132.113,96.883c0,8.09,0.01,16.19-0.04,24.28c0,0.6-0.29,1.34-0.71,1.77c-3.64,3.74-7.32,7.45-11.04,11.11
					c-0.4,0.4-1.09,0.69-1.65,0.7c-9.59,0.04-19.18,0.04-28.77-0.01c-0.6,0-1.34-0.31-1.76-0.72c-3.67-3.66-7.29-7.36-10.88-11.1
					c-0.39-0.4-0.68-1.1-0.69-1.66c-0.03-18.78-0.03-37.56,0.01-56.34c0-0.56,0.28-1.27,0.67-1.68c3.61-3.82,7.27-7.6,10.96-11.35
					c0.37-0.37,1.03-0.64,1.55-0.64c9.67-0.04,19.35-0.03,29.02,0c0.5,0,1.11,0.25,1.46,0.59c3.79,3.81,7.56,7.67,11.3,11.53
					c0.28,0.29,0.54,0.75,0.54,1.13c0.03,6.76,0.02,13.52,0.01,20.28c0,0.11-0.05,0.22-0.1,0.4c-7.15,0-14.3,0-21.56,0
					c0-4.22,0.01-8.42,0-12.72c-4.12,0-8.14,0-12.22,0c0,13.7,0,27.39,0,41.16c4.02,0,8,0,12.13,0.01c0-5.94,0-11.86,0-17.87
					c7.29,0,14.43,0,21.77,0C132.113,96.113,132.113,96.493,132.113,96.883z M130.583,98.533c-0.01-0.44,0-0.87,0-1.32
					c-6.35,0-12.52,0-18.85-0.01c0,5.99,0,11.91,0,17.82c-5.07,0-9.99,0-14.96,0c0-14.71,0-29.35,0-44.06c5.06,0,9.98,0,15.02,0
					c0,4.34,0,8.61,0,12.9c6.3,0,12.47,0,18.68,0c0.04-0.21,0.1-0.37,0.1-0.52c0-6.11,0.02-12.23-0.02-18.34
					c-0.01-0.45-0.33-0.99-0.66-1.33c-3.37-3.44-6.75-6.87-10.19-10.25c-0.42-0.41-1.17-0.71-1.77-0.71
					c-9.15-0.05-18.3-0.05-27.44-0.01c-0.56,0.01-1.26,0.3-1.66,0.7c-3.43,3.44-6.82,6.91-10.19,10.42
					c-0.34,0.35-0.57,0.98-0.57,1.47c-0.03,18.46-0.03,36.92,0,55.38c0,0.53,0.28,1.17,0.65,1.56c3.32,3.49,6.67,6.96,10.05,10.38
					c0.4,0.4,1.09,0.72,1.65,0.72c9.23,0.04,18.46,0.04,27.69,0c0.56,0,1.26-0.29,1.65-0.69c3.38-3.38,6.73-6.79,10.02-10.25
					c0.44-0.46,0.76-1.25,0.76-1.88C130.593,113.183,130.573,105.853,130.583,98.533z"/>
				<path fill="#FFFFFF" d="M130.583,97.213c0,0.45-0.01,0.88,0,1.32c-0.01,7.32,0.01,14.65-0.04,21.98c0,0.63-0.32,1.42-0.76,1.88
					c-3.29,3.46-6.64,6.87-10.02,10.25c-0.39,0.4-1.09,0.69-1.65,0.69c-9.23,0.04-18.46,0.04-27.69,0c-0.56,0-1.25-0.32-1.65-0.72
					c-3.38-3.42-6.73-6.89-10.05-10.38c-0.37-0.39-0.65-1.03-0.65-1.56c-0.03-18.46-0.03-36.92,0-55.38c0-0.49,0.23-1.12,0.57-1.47
					c3.37-3.51,6.76-6.98,10.19-10.42c0.4-0.4,1.1-0.69,1.66-0.7c9.14-0.04,18.29-0.04,27.44,0.01c0.6,0,1.35,0.3,1.77,0.71
					c3.44,3.38,6.82,6.81,10.19,10.25c0.33,0.34,0.65,0.88,0.66,1.33c0.04,6.11,0.02,12.23,0.02,18.34c0,0.15-0.06,0.31-0.1,0.52
					c-6.21,0-12.38,0-18.68,0c0-4.29,0-8.56,0-12.9c-5.04,0-9.96,0-15.02,0c0,14.71,0,29.35,0,44.06c4.97,0,9.89,0,14.96,0
					c0-5.91,0-11.83,0-17.82C118.063,97.213,124.233,97.213,130.583,97.213z M129.013,120.013c0.04-4.29,0.02-8.59,0.03-12.87
					c0-2.76-0.01-5.5,0-8.37c-5.35,0-10.54,0.01-15.82,0.01c0,5.95,0,11.81,0,17.73c-6.02,0-11.94,0-17.9,0
					c0.01-15.73,0-31.4,0.01-47.01c6.02,0,11.95,0,18,0c0,4.33,0,8.56,0,12.77c5.29,0,10.45,0,15.58,0c0.05-0.16,0.1-0.24,0.1-0.31
					c0.01-5.47,0.03-10.93,0-16.39c-0.01-0.44-0.36-0.96-0.7-1.3c-3.04-3.14-6.1-6.27-9.2-9.34c-0.41-0.4-1.09-0.72-1.65-0.72
					c-8.78-0.05-17.56-0.05-26.35-0.01c-0.55,0.01-1.24,0.33-1.65,0.73c-3.06,3.06-6.09,6.15-9.07,9.3
					c-0.43,0.46-0.75,1.25-0.75,1.88c-0.04,17.9-0.03,35.79-0.05,53.68c0,0.82,0.21,1.43,0.8,2.03c3.03,3.09,5.99,6.25,9.04,9.33
					c0.38,0.4,1.09,0.68,1.65,0.68c8.79,0.04,17.57,0.04,26.35,0c0.56,0,1.26-0.29,1.65-0.69c3.15-3.14,6.26-6.33,9.34-9.55
					C128.783,121.213,129.003,120.543,129.013,120.013z"/>
				<path fill="#07324F" d="M129.043,107.143c-0.01,4.28,0.01,8.58-0.03,12.87c-0.01,0.53-0.23,1.2-0.59,1.58
					c-3.08,3.22-6.19,6.41-9.34,9.55c-0.39,0.4-1.09,0.69-1.65,0.69c-8.78,0.04-17.56,0.04-26.35,0c-0.56,0-1.27-0.28-1.65-0.68
					c-3.05-3.08-6.01-6.24-9.04-9.33c-0.59-0.6-0.8-1.21-0.8-2.03c0.02-17.89,0.01-35.78,0.05-53.68c0-0.63,0.32-1.42,0.75-1.88
					c2.98-3.15,6.01-6.24,9.07-9.3c0.41-0.4,1.1-0.72,1.65-0.73c8.79-0.04,17.57-0.04,26.35,0.01c0.56,0,1.24,0.32,1.65,0.72
					c3.1,3.07,6.16,6.2,9.2,9.34c0.34,0.34,0.69,0.86,0.7,1.3c0.03,5.46,0.01,10.92,0,16.39c0,0.07-0.05,0.15-0.1,0.31
					c-5.13,0-10.29,0-15.58,0c0-4.21,0-8.44,0-12.77c-6.05,0-11.98,0-18,0c-0.01,15.61,0,31.28-0.01,47.01c5.96,0,11.88,0,17.9,0
					c0-5.92,0-11.78,0-17.73c5.28,0,10.47-0.01,15.82-0.01C129.033,101.643,129.043,104.383,129.043,107.143z"/>
			</g>
			<g>
			</g>
		</g>
	</g>
	<line fill="none" stroke="#000000" stroke-width="4" stroke-miterlimit="10" x1="78.05" y1="143.01" x2="358.88" y2="143.01"/>
</g>
</svg>
